<svg id="visual" viewBox="0 0 540 960" width="540" height="960" xmlns="http://www.w3.org/2000/svg" xmlns:xlink="http://www.w3.org/1999/xlink" version="1.1"><rect width="540" height="960" fill="#001122"></rect><g><g transform="translate(450 320)"><path d="M66.6 -60.1C78.9 -54.4 76.2 -27.2 76.8 0.5C77.3 28.2 81 56.5 68.7 69.7C56.5 82.9 28.2 81 10.4 70.7C-7.5 60.3 -15 41.4 -33 28.2C-50.9 15 -79.2 7.5 -82.2 -3C-85.2 -13.6 -63 -27.2 -45.1 -32.9C-27.2 -38.6 -13.6 -36.4 6.8 -43.2C27.2 -50 54.4 -65.8 66.6 -60.1Z" stroke="#FCAF3C" fill="none" stroke-width="20"></path></g><g transform="translate(31 82)"><path d="M51.3 -54.3C61.2 -41.4 60.3 -20.7 57 -3.4C53.6 14 47.7 27.9 37.8 36.7C27.9 45.6 14 49.2 -0.4 49.7C-14.8 50.1 -29.7 47.3 -43.5 38.5C-57.4 29.7 -70.2 14.8 -66.7 3.5C-63.2 -7.9 -43.4 -15.7 -29.5 -28.5C-15.7 -41.3 -7.9 -59.1 6.4 -65.6C20.7 -72 41.4 -67.1 51.3 -54.3Z" stroke="#FCAF3C" fill="none" stroke-width="20"></path></g><g transform="translate(148 801)"><path d="M17 -16C21.5 -12.5 24.3 -6.2 24.8 0.4C25.2 7.1 23.3 14.3 18.8 19.1C14.3 23.9 7.1 26.4 0.9 25.5C-5.2 24.6 -10.5 20.2 -13.5 15.3C-16.4 10.5 -17.1 5.2 -18 -0.9C-18.9 -7 -20 -14.1 -17 -17.5C-14.1 -21 -7 -20.9 -0.4 -20.5C6.2 -20.1 12.5 -19.4 17 -16Z" stroke="#FCAF3C" fill="none" stroke-width="20"></path></g><g transform="translate(16 497)"><path d="M53.6 -56.1C61.1 -46.1 53.2 -23 47.4 -5.8C41.7 11.5 38.1 23 30.5 29.8C23 36.7 11.5 38.9 -2.2 41.1C-15.9 43.3 -31.8 45.4 -43.6 38.6C-55.5 31.8 -63.4 15.9 -62 1.5C-60.5 -12.9 -49.6 -25.8 -37.7 -35.9C-25.8 -46 -12.9 -53.2 5.1 -58.2C23 -63.3 46.1 -66.2 53.6 -56.1Z" stroke="#FCAF3C" fill="none" stroke-width="20"></path></g><g transform="translate(477 807)"><path d="M28.7 -29.5C34.2 -23.2 33.6 -11.6 35.1 1.5C36.6 14.7 40.3 29.3 34.8 45.6C29.3 61.9 14.7 79.8 -2.7 82.6C-20.1 85.3 -40.3 72.9 -48.1 56.6C-55.8 40.3 -51.2 20.1 -48.8 2.4C-46.5 -15.4 -46.3 -30.8 -38.6 -37.1C-30.8 -43.4 -15.4 -40.7 -1.9 -38.8C11.6 -36.9 23.2 -35.8 28.7 -29.5Z" stroke="#FCAF3C" fill="none" stroke-width="20"></path></g><g transform="translate(285 39)"><path d="M30.7 -33.6C34.8 -26.5 29.9 -13.2 31.2 1.3C32.5 15.8 39.9 31.6 35.7 40.1C31.6 48.6 15.8 49.9 -0.2 50.1C-16.2 50.3 -32.3 49.4 -43.2 40.8C-54.2 32.3 -59.9 16.2 -58.5 1.4C-57.1 -13.3 -48.6 -26.7 -37.6 -33.7C-26.7 -40.8 -13.3 -41.6 0 -41.6C13.2 -41.5 26.5 -40.6 30.7 -33.6Z" stroke="#FCAF3C" fill="none" stroke-width="20"></path></g><g transform="translate(327 592)"><path d="M20.5 -19.1C27 -14.1 32.9 -7 34.2 1.3C35.5 9.6 32.2 19.3 25.7 24.8C19.3 30.3 9.6 31.6 3.4 28.1C-2.8 24.7 -5.6 16.6 -11.4 11.1C-17.2 5.6 -26.1 2.8 -27.9 -1.9C-29.8 -6.6 -24.7 -13.1 -18.9 -18.1C-13.1 -23.1 -6.6 -26.6 0.2 -26.8C7 -27.1 14.1 -24.1 20.5 -19.1Z" stroke="#FCAF3C" fill="none" stroke-width="20"></path></g></g></svg>