<svg id="visual" viewBox="0 0 540 960" width="540" height="960" xmlns="http://www.w3.org/2000/svg" xmlns:xlink="http://www.w3.org/1999/xlink" version="1.1"><rect x="0" y="0" width="540" height="960" fill="#001220"></rect><path d="M0 409L9 433C18 457 36 505 54 519.3C72 533.7 90 514.3 108 499C126 483.7 144 472.3 162 484C180 495.7 198 530.3 216 547.3C234 564.3 252 563.7 270 559.7C288 555.7 306 548.3 324 537.8C342 527.3 360 513.7 378 504.3C396 495 414 490 432 489.8C450 489.7 468 494.3 486 505.7C504 517 522 535 531 544L540 553L540 961L531 961C522 961 504 961 486 961C468 961 450 961 432 961C414 961 396 961 378 961C360 961 342 961 324 961C306 961 288 961 270 961C252 961 234 961 216 961C198 961 180 961 162 961C144 961 126 961 108 961C90 961 72 961 54 961C36 961 18 961 9 961L0 961Z" fill="#222413"></path><path d="M0 510L9 516.2C18 522.3 36 534.7 54 550.7C72 566.7 90 586.3 108 580.2C126 574 144 542 162 535.2C180 528.3 198 546.7 216 561.2C234 575.7 252 586.3 270 594C288 601.7 306 606.3 324 598C342 589.7 360 568.3 378 555.7C396 543 414 539 432 549.7C450 560.3 468 585.7 486 576.5C504 567.3 522 523.7 531 501.8L540 480L540 961L531 961C522 961 504 961 486 961C468 961 450 961 432 961C414 961 396 961 378 961C360 961 342 961 324 961C306 961 288 961 270 961C252 961 234 961 216 961C198 961 180 961 162 961C144 961 126 961 108 961C90 961 72 961 54 961C36 961 18 961 9 961L0 961Z" fill="#584c42"></path><path d="M0 595L9 586.5C18 578 36 561 54 562.8C72 564.7 90 585.3 108 594.3C126 603.3 144 600.7 162 602.3C180 604 198 610 216 617.3C234 624.7 252 633.3 270 628.7C288 624 306 606 324 597.3C342 588.7 360 589.3 378 579.3C396 569.3 414 548.7 432 546C450 543.3 468 558.7 486 566.3C504 574 522 574 531 574L540 574L540 961L531 961C522 961 504 961 486 961C468 961 450 961 432 961C414 961 396 961 378 961C360 961 342 961 324 961C306 961 288 961 270 961C252 961 234 961 216 961C198 961 180 961 162 961C144 961 126 961 108 961C90 961 72 961 54 961C36 961 18 961 9 961L0 961Z" fill="#897c7c"></path><path d="M0 602L9 598.8C18 595.7 36 589.3 54 598.5C72 607.7 90 632.3 108 633.5C126 634.7 144 612.3 162 602.2C180 592 198 594 216 593C234 592 252 588 270 599.8C288 611.7 306 639.3 324 654.5C342 669.7 360 672.3 378 667.8C396 663.3 414 651.7 432 638.8C450 626 468 612 486 609.5C504 607 522 616 531 620.5L540 625L540 961L531 961C522 961 504 961 486 961C468 961 450 961 432 961C414 961 396 961 378 961C360 961 342 961 324 961C306 961 288 961 270 961C252 961 234 961 216 961C198 961 180 961 162 961C144 961 126 961 108 961C90 961 72 961 54 961C36 961 18 961 9 961L0 961Z" fill="#b5b2b4"></path><path d="M0 681L9 690.3C18 699.7 36 718.3 54 719.5C72 720.7 90 704.3 108 696C126 687.7 144 687.3 162 685.7C180 684 198 681 216 678.7C234 676.3 252 674.7 270 681.8C288 689 306 705 324 702.8C342 700.7 360 680.3 378 669.8C396 659.3 414 658.7 432 661.8C450 665 468 672 486 675.7C504 679.3 522 679.7 531 679.8L540 680L540 961L531 961C522 961 504 961 486 961C468 961 450 961 432 961C414 961 396 961 378 961C360 961 342 961 324 961C306 961 288 961 270 961C252 961 234 961 216 961C198 961 180 961 162 961C144 961 126 961 108 961C90 961 72 961 54 961C36 961 18 961 9 961L0 961Z" fill="#bfbdbf"></path><path d="M0 745L9 740.7C18 736.3 36 727.7 54 727.2C72 726.7 90 734.3 108 738.5C126 742.7 144 743.3 162 745.5C180 747.7 198 751.3 216 744C234 736.7 252 718.3 270 719.5C288 720.7 306 741.3 324 755C342 768.7 360 775.3 378 771.7C396 768 414 754 432 748.8C450 743.7 468 747.3 486 753C504 758.7 522 766.3 531 770.2L540 774L540 961L531 961C522 961 504 961 486 961C468 961 450 961 432 961C414 961 396 961 378 961C360 961 342 961 324 961C306 961 288 961 270 961C252 961 234 961 216 961C198 961 180 961 162 961C144 961 126 961 108 961C90 961 72 961 54 961C36 961 18 961 9 961L0 961Z" fill="#b5b2b4"></path><path d="M0 804L9 802.5C18 801 36 798 54 791.8C72 785.7 90 776.3 108 776.5C126 776.7 144 786.3 162 785.5C180 784.7 198 773.3 216 774.8C234 776.3 252 790.7 270 792C288 793.3 306 781.7 324 782.8C342 784 360 798 378 795C396 792 414 772 432 767.5C450 763 468 774 486 780.3C504 786.7 522 788.3 531 789.2L540 790L540 961L531 961C522 961 504 961 486 961C468 961 450 961 432 961C414 961 396 961 378 961C360 961 342 961 324 961C306 961 288 961 270 961C252 961 234 961 216 961C198 961 180 961 162 961C144 961 126 961 108 961C90 961 72 961 54 961C36 961 18 961 9 961L0 961Z" fill="#897c7c"></path><path d="M0 841L9 842C18 843 36 845 54 849.8C72 854.7 90 862.3 108 864.3C126 866.3 144 862.7 162 857.3C180 852 198 845 216 847.2C234 849.3 252 860.7 270 862.7C288 864.7 306 857.3 324 849.2C342 841 360 832 378 831.7C396 831.3 414 839.7 432 848.2C450 856.7 468 865.3 486 861C504 856.7 522 839.3 531 830.7L540 822L540 961L531 961C522 961 504 961 486 961C468 961 450 961 432 961C414 961 396 961 378 961C360 961 342 961 324 961C306 961 288 961 270 961C252 961 234 961 216 961C198 961 180 961 162 961C144 961 126 961 108 961C90 961 72 961 54 961C36 961 18 961 9 961L0 961Z" fill="#584c42"></path><path d="M0 904L9 898.7C18 893.3 36 882.7 54 877.8C72 873 90 874 108 879.7C126 885.3 144 895.7 162 900C180 904.3 198 902.7 216 901.3C234 900 252 899 270 893.5C288 888 306 878 324 879.7C342 881.3 360 894.7 378 898C396 901.3 414 894.7 432 893.7C450 892.7 468 897.3 486 900C504 902.7 522 903.3 531 903.7L540 904L540 961L531 961C522 961 504 961 486 961C468 961 450 961 432 961C414 961 396 961 378 961C360 961 342 961 324 961C306 961 288 961 270 961C252 961 234 961 216 961C198 961 180 961 162 961C144 961 126 961 108 961C90 961 72 961 54 961C36 961 18 961 9 961L0 961Z" fill="#222413"></path></svg>